<svg width="200" height="200" viewBox="0 0 200 200" fill="none" xmlns="http://www.w3.org/2000/svg">
  <!-- Fond du logo -->
  <circle cx="100" cy="100" r="90" fill="#F9E4B7" />
  
  <!-- Cercle intérieur -->
  <circle cx="100" cy="100" r="75" fill="#FAEFD1" stroke="#8B4513" stroke-width="2" />
  
  <!-- Baguette stylisée -->
  <path d="M50 110C50 110 70 100 100 100C130 100 150 110 150 110" fill="#E6C27A" stroke="#8B4513" stroke-width="3" />
  <path d="M50 110L150 110C150 120 130 130 100 130C70 130 50 120 50 110Z" fill="#F2D794" stroke="#8B4513" stroke-width="3" />
  <path d="M60 100L65 110" stroke="#8B4513" stroke-width="1.5" stroke-linecap="round" />
  <path d="M80 100L85 110" stroke="#8B4513" stroke-width="1.5" stroke-linecap="round" />
  <path d="M100 100L105 110" stroke="#8B4513" stroke-width="1.5" stroke-linecap="round" />
  <path d="M120 100L125 110" stroke="#8B4513" stroke-width="1.5" stroke-linecap="round" />
  <path d="M140 100L145 110" stroke="#8B4513" stroke-width="1.5" stroke-linecap="round" />
  
  <!-- Épis de blé -->
  <path d="M60 70C55 65 50 70 45 75C40 80 40 90 45 95" stroke="#E6C27A" stroke-width="2.5" stroke-linecap="round" />
  <path d="M60 80C55 75 50 80 45 85" stroke="#E6C27A" stroke-width="2.5" stroke-linecap="round" />
  <path d="M140 70C145 65 150 70 155 75C160 80 160 90 155 95" stroke="#E6C27A" stroke-width="2.5" stroke-linecap="round" />
  <path d="M140 80C145 75 150 80 155 85" stroke="#E6C27A" stroke-width="2.5" stroke-linecap="round" />
  
  <!-- Chapeau de boulanger -->
  <path d="M70 60C70 60 85 40 100 40C115 40 130 60 130 60" stroke="#8B4513" stroke-width="3" stroke-linecap="round" />
  <path d="M75 50C75 50 90 35 100 35C110 35 125 50 125 50" stroke="#8B4513" stroke-width="2" stroke-linecap="round" />
  
  <!-- Nom de la boulangerie -->
  <text x="100" y="160" font-family="Arial" font-size="18" font-weight="bold" text-anchor="middle" fill="#8B4513">Croûte que Croûte</text>
</svg>