<svg width="200" height="200" viewBox="0 0 200 200" fill="none" xmlns="http://www.w3.org/2000/svg">
  <!-- Fond transparent -->
  <rect width="200" height="200" fill="none" />
  
  <!-- Base du chapeau -->
  <path d="M50 130C50 130 70 150 100 150C130 150 150 130 150 130V110C150 110 130 120 100 120C70 120 50 110 50 110V130Z" fill="#FFFFFF" stroke="#CCCCCC" stroke-width="2" />
  
  <!-- Partie supérieure du chapeau -->
  <path d="M50 110C50 110 60 80 100 80C140 80 150 110 150 110" fill="#FFFFFF" stroke="#CCCCCC" stroke-width="2" />
  
  <!-- Plis du chapeau -->
  <path d="M60 110C60 110 70 90 100 90C130 90 140 110 140 110" stroke="#DDDDDD" stroke-width="1.5" stroke-linecap="round" />
  <path d="M70 110C70 110 80 100 100 100C120 100 130 110 130 110" stroke="#DDDDDD" stroke-width="1.5" stroke-linecap="round" />
  
  <!-- Bord du chapeau -->
  <path d="M45 130C45 130 70 140 100 140C130 140 155 130 155 130" stroke="#CCCCCC" stroke-width="3" stroke-linecap="round" />
  
  <!-- Détails texturés -->
  <path d="M60 120C60 120 80 130 100 130C120 130 140 120 140 120" stroke="#EEEEEE" stroke-width="1" stroke-linecap="round" />
  <path d="M70 100C70 100 85 95 100 95C115 95 130 100 130 100" stroke="#EEEEEE" stroke-width="1" stroke-linecap="round" />
  
  <!-- Ombre sous le chapeau -->
  <ellipse cx="100" cy="155" rx="50" ry="5" fill="#EEEEEE" opacity="0.3" />
</svg>